<?xml version="1.0" encoding="UTF-8"?>
<!--Generator: Apple Native CoreSVG 341-->
<!DOCTYPE svg
PUBLIC "-//W3C//DTD SVG 1.1//EN"
       "http://www.w3.org/Graphics/SVG/1.1/DTD/svg11.dtd">
<svg version="1.1" xmlns="http://www.w3.org/2000/svg" xmlns:xlink="http://www.w3.org/1999/xlink" viewBox="0 0 38.1592 28.4619">
 <g>
  <rect height="28.4619" opacity="0" width="38.1592" x="0" y="0"/>
  <path d="M0 14.2236C0 22.5146 7.82227 28.4619 18.8965 28.4619C29.9707 28.4619 37.793 22.5146 37.793 14.2236C37.793 5.91797 29.9707 0 18.8965 0C7.82227 0 0 5.91797 0 14.2236ZM2.3584 14.2236C2.3584 7.30957 9.21387 2.3584 18.8965 2.3584C28.5791 2.3584 35.4346 7.30957 35.4346 14.2236C35.4346 21.1377 28.5791 26.1035 18.8965 26.1035C9.21387 26.1035 2.3584 21.1377 2.3584 14.2236Z" fill="white" fill-opacity="0.85"/>
  <path d="M4.51172 14.2236C4.51172 19.8779 10.415 23.9648 18.8965 23.9648C27.3926 23.9648 33.2959 19.8779 33.2959 14.2236C33.2959 8.58398 27.3779 4.49707 18.8965 4.49707C10.4297 4.49707 4.51172 8.58398 4.51172 14.2236Z" fill="white" fill-opacity="0.85"/>
 </g>
</svg>
